<mxfile host="app.diagrams.net" modified="2024-05-06T18:49:18.974Z" agent="Mozilla/5.0 (Windows NT 10.0; Win64; x64) AppleWebKit/537.36 (KHTML, like Gecko) Chrome/121.0.0.0 Safari/537.36 OPR/107.0.0.0" etag="5rAEs0ywvXaIj9yvfble" version="24.3.1" type="device">
  <diagram name="Página-1" id="BfVdu5xQGKNtw6ZUOIGQ">
    <mxGraphModel dx="2418" dy="1546" grid="0" gridSize="10" guides="1" tooltips="1" connect="1" arrows="1" fold="1" page="0" pageScale="1" pageWidth="827" pageHeight="1169" math="0" shadow="0">
      <root>
        <mxCell id="0" />
        <mxCell id="1" parent="0" />
        <mxCell id="gWYd5YzaYYqHv2XwFN_W-1" value="Aplicativo de serviços de beleza" style="html=1;overflow=block;blockSpacing=1;whiteSpace=wrap;container=1;pointerEvents=0;collapsible=0;recursiveResize=0;fontSize=16.7;fontColor=#333333;fontStyle=3;spacing=0;verticalAlign=bottom;strokeColor=#333333;strokeOpacity=100;fillOpacity=0;rounded=1;absoluteArcSize=1;arcSize=7.5;fillColor=#000000;strokeWidth=0.8;lucidId=wvyzM6N.5AY.;" vertex="1" parent="1">
          <mxGeometry x="-143" y="-130" width="735" height="930" as="geometry" />
        </mxCell>
        <mxCell id="gWYd5YzaYYqHv2XwFN_W-12" value="REAGENDAR SERVIÇO" style="html=1;overflow=block;blockSpacing=1;whiteSpace=wrap;ellipse;fontSize=13;fontColor=#ffffff;spacing=3.8;strokeColor=#ffffff;strokeOpacity=100;fillOpacity=100;rounded=1;absoluteArcSize=1;arcSize=7.5;fillColor=#3278cc;strokeWidth=0.8;lucidId=wvyzV5zUrH7a;" vertex="1" parent="gWYd5YzaYYqHv2XwFN_W-1">
          <mxGeometry x="366" y="259" width="120" height="90" as="geometry" />
        </mxCell>
        <mxCell id="gWYd5YzaYYqHv2XwFN_W-7" value="AUTENTICAR USUÁRIO" style="html=1;overflow=block;blockSpacing=1;whiteSpace=wrap;ellipse;fontSize=13.3;fontColor=#ffffff;fontStyle=2;align=center;spacing=0;verticalAlign=middle;strokeColor=#ffffff;strokeOpacity=100;fillOpacity=100;rounded=1;absoluteArcSize=1;arcSize=7.5;fillColor=#3278cc;strokeWidth=0.8;lucidId=wvyzOKTp8.~.;" vertex="1" parent="gWYd5YzaYYqHv2XwFN_W-1">
          <mxGeometry x="300" y="54" width="120" height="90" as="geometry" />
        </mxCell>
        <mxCell id="gWYd5YzaYYqHv2XwFN_W-2" value="usuário" style="html=1;overflow=block;blockSpacing=1;shape=umlActor;labelPosition=center;verticalLabelPosition=bottom;verticalAlign=top;whiteSpace=nowrap;fontSize=13.3;fontColor=#333333;fontStyle=2;spacing=0;strokeColor=#333333;strokeOpacity=100;rounded=1;absoluteArcSize=1;arcSize=7.5;fillColor=#ffffff;strokeWidth=0.8;lucidId=wvyz~zZ7IhlV;" vertex="1" parent="1">
          <mxGeometry x="-218" y="170" width="60" height="135" as="geometry" />
        </mxCell>
        <mxCell id="gWYd5YzaYYqHv2XwFN_W-3" value="FAZER LOGIN" style="html=1;overflow=block;blockSpacing=1;whiteSpace=wrap;ellipse;fontSize=13.3;fontColor=#ffffff;fontStyle=2;align=center;spacing=0;verticalAlign=middle;strokeColor=#ffffff;strokeOpacity=100;fillOpacity=100;rounded=1;absoluteArcSize=1;arcSize=7.5;fillColor=#3278cc;strokeWidth=0.8;lucidId=wvyz1ErxsB6p;" vertex="1" parent="1">
          <mxGeometry x="-8" y="65" width="120" height="90" as="geometry" />
        </mxCell>
        <mxCell id="gWYd5YzaYYqHv2XwFN_W-4" value="AGENDAMENTO DE SERVIÇOS" style="html=1;overflow=block;blockSpacing=1;whiteSpace=wrap;ellipse;fontSize=13;fontColor=#ffffff;spacing=3.8;strokeColor=#ffffff;strokeOpacity=100;fillOpacity=100;rounded=1;absoluteArcSize=1;arcSize=7.5;fillColor=#3278cc;strokeWidth=0.8;lucidId=wvyzICs4sFn5;" vertex="1" parent="1">
          <mxGeometry x="-8" y="193" width="120" height="90" as="geometry" />
        </mxCell>
        <mxCell id="gWYd5YzaYYqHv2XwFN_W-5" value="" style="html=1;jettySize=18;whiteSpace=wrap;fontSize=13;strokeColor=#5E5E5E;strokeWidth=1.5;rounded=1;arcSize=12;edgeStyle=orthogonalEdgeStyle;startArrow=none;endArrow=block;endFill=1;exitX=0.506;exitY=0.5;exitPerimeter=0;entryX=-0.003;entryY=0.5;entryPerimeter=0;lucidId=wvyzSI3lKz.y;" edge="1" parent="1" source="gWYd5YzaYYqHv2XwFN_W-2" target="gWYd5YzaYYqHv2XwFN_W-4">
          <mxGeometry width="100" height="100" relative="1" as="geometry">
            <Array as="points" />
          </mxGeometry>
        </mxCell>
        <mxCell id="gWYd5YzaYYqHv2XwFN_W-6" value="" style="html=1;jettySize=18;whiteSpace=wrap;fontSize=13;strokeColor=#5E5E5E;strokeWidth=1.5;rounded=1;arcSize=12;edgeStyle=orthogonalEdgeStyle;startArrow=none;endArrow=block;endFill=1;exitX=0.506;exitY=0.439;exitPerimeter=0;entryX=0.004;entryY=0.587;entryPerimeter=0;lucidId=wvyzBKNBqach;" edge="1" parent="1" source="gWYd5YzaYYqHv2XwFN_W-2" target="gWYd5YzaYYqHv2XwFN_W-3">
          <mxGeometry width="100" height="100" relative="1" as="geometry">
            <Array as="points" />
          </mxGeometry>
        </mxCell>
        <mxCell id="gWYd5YzaYYqHv2XwFN_W-8" value="" style="html=1;jettySize=18;whiteSpace=wrap;fontSize=13;strokeColor=#333333;strokeOpacity=100;dashed=1;fixDash=1;strokeWidth=0.8;rounded=0;startArrow=none;endArrow=open;exitX=-0.003;exitY=0.5;exitPerimeter=0;entryX=0.5;entryY=-0.004;entryPerimeter=0;lucidId=wvyzKGoiupi0;" edge="1" parent="1" source="gWYd5YzaYYqHv2XwFN_W-7" target="gWYd5YzaYYqHv2XwFN_W-3">
          <mxGeometry width="100" height="100" relative="1" as="geometry">
            <Array as="points" />
          </mxGeometry>
        </mxCell>
        <mxCell id="gWYd5YzaYYqHv2XwFN_W-9" value="include" style="text;html=1;resizable=0;labelBackgroundColor=default;align=center;verticalAlign=middle;fontStyle=2;fontColor=#333333;fontSize=13.3;" vertex="1" parent="gWYd5YzaYYqHv2XwFN_W-8">
          <mxGeometry relative="1" as="geometry" />
        </mxCell>
        <mxCell id="gWYd5YzaYYqHv2XwFN_W-11" value="VISUALIZAR SERVIÇOS" style="html=1;overflow=block;blockSpacing=1;whiteSpace=wrap;ellipse;fontSize=13;fontColor=#ffffff;spacing=3.8;strokeColor=#ffffff;strokeOpacity=100;fillOpacity=100;rounded=1;absoluteArcSize=1;arcSize=7.5;fillColor=#3278cc;strokeWidth=0.8;lucidId=wvyzOjkdI~kI;" vertex="1" parent="1">
          <mxGeometry x="7" y="500" width="120" height="90" as="geometry" />
        </mxCell>
        <mxCell id="gWYd5YzaYYqHv2XwFN_W-13" value="" style="html=1;jettySize=18;whiteSpace=wrap;fontSize=13;strokeColor=#333333;strokeOpacity=100;dashed=1;fixDash=1;strokeWidth=0.8;rounded=0;startArrow=none;endArrow=open;exitX=0.5;exitY=-0.004;exitPerimeter=0;entryX=-0.003;entryY=0.5;entryPerimeter=0;lucidId=wvyz44w24Je2;" edge="1" parent="1" source="gWYd5YzaYYqHv2XwFN_W-4" target="gWYd5YzaYYqHv2XwFN_W-12">
          <mxGeometry width="100" height="100" relative="1" as="geometry">
            <Array as="points" />
          </mxGeometry>
        </mxCell>
        <mxCell id="gWYd5YzaYYqHv2XwFN_W-14" value="EXTENDS" style="text;html=1;resizable=0;labelBackgroundColor=default;align=center;verticalAlign=middle;fontStyle=2;fontColor=#333333;fontSize=13.3;" vertex="1" parent="gWYd5YzaYYqHv2XwFN_W-13">
          <mxGeometry relative="1" as="geometry" />
        </mxCell>
        <mxCell id="gWYd5YzaYYqHv2XwFN_W-15" value="CANCELAR AGENDAMENTO" style="html=1;overflow=block;blockSpacing=1;whiteSpace=wrap;ellipse;fontSize=13;fontColor=#ffffff;spacing=3.8;strokeColor=#ffffff;strokeOpacity=100;fillOpacity=100;rounded=1;absoluteArcSize=1;arcSize=7.5;fillColor=#3278cc;strokeWidth=0.8;lucidId=wvyzwQxaAiyB;" vertex="1" parent="1">
          <mxGeometry x="232" y="260" width="120" height="90" as="geometry" />
        </mxCell>
        <mxCell id="gWYd5YzaYYqHv2XwFN_W-16" value="" style="html=1;jettySize=18;whiteSpace=wrap;fontSize=13;strokeColor=#333333;strokeOpacity=100;dashed=1;fixDash=1;strokeWidth=0.8;rounded=0;startArrow=none;endArrow=open;exitX=0.5;exitY=1.004;exitPerimeter=0;entryX=-0.003;entryY=0.5;entryPerimeter=0;lucidId=wvyzDyJkjw6B;" edge="1" parent="1" source="gWYd5YzaYYqHv2XwFN_W-4" target="gWYd5YzaYYqHv2XwFN_W-15">
          <mxGeometry width="100" height="100" relative="1" as="geometry">
            <Array as="points" />
          </mxGeometry>
        </mxCell>
        <mxCell id="gWYd5YzaYYqHv2XwFN_W-17" value="EXTENDS" style="text;html=1;resizable=0;labelBackgroundColor=default;align=center;verticalAlign=middle;fontStyle=2;fontColor=#333333;fontSize=13.3;" vertex="1" parent="gWYd5YzaYYqHv2XwFN_W-16">
          <mxGeometry relative="1" as="geometry" />
        </mxCell>
        <mxCell id="gWYd5YzaYYqHv2XwFN_W-18" value="" style="html=1;jettySize=18;whiteSpace=wrap;fontSize=13;strokeColor=#5E5E5E;strokeWidth=1.5;rounded=1;arcSize=12;edgeStyle=orthogonalEdgeStyle;startArrow=none;endArrow=block;endFill=1;exitX=0.506;exitY=0.439;exitPerimeter=0;entryX=-0.003;entryY=0.5;entryPerimeter=0;lucidId=wvyzL8~Ycayv;" edge="1" parent="1" source="gWYd5YzaYYqHv2XwFN_W-2" target="gWYd5YzaYYqHv2XwFN_W-11">
          <mxGeometry width="100" height="100" relative="1" as="geometry">
            <Array as="points" />
          </mxGeometry>
        </mxCell>
        <mxCell id="gWYd5YzaYYqHv2XwFN_W-19" value="PESQUISAR POR SERVIÇO" style="html=1;overflow=block;blockSpacing=1;whiteSpace=wrap;ellipse;fontSize=13;fontColor=#ffffff;spacing=3.8;strokeColor=#ffffff;strokeOpacity=100;fillOpacity=100;rounded=1;absoluteArcSize=1;arcSize=7.5;fillColor=#3278cc;strokeWidth=0.8;lucidId=wvyz_6u.Hg0.;" vertex="1" parent="1">
          <mxGeometry x="232" y="575" width="120" height="90" as="geometry" />
        </mxCell>
        <mxCell id="gWYd5YzaYYqHv2XwFN_W-20" value="" style="html=1;jettySize=18;whiteSpace=wrap;fontSize=13;strokeColor=#333333;strokeOpacity=100;dashed=1;fixDash=1;strokeWidth=0.8;rounded=0;startArrow=none;endArrow=open;exitX=0.5;exitY=1.004;exitPerimeter=0;entryX=-0.003;entryY=0.5;entryPerimeter=0;lucidId=wvyzdbQhRddT;" edge="1" parent="1" source="gWYd5YzaYYqHv2XwFN_W-11" target="gWYd5YzaYYqHv2XwFN_W-19">
          <mxGeometry width="100" height="100" relative="1" as="geometry">
            <Array as="points" />
          </mxGeometry>
        </mxCell>
        <mxCell id="gWYd5YzaYYqHv2XwFN_W-21" value="EXTENDS" style="text;html=1;resizable=0;labelBackgroundColor=default;align=center;verticalAlign=middle;fontStyle=2;fontColor=#333333;fontSize=13.3;" vertex="1" parent="gWYd5YzaYYqHv2XwFN_W-20">
          <mxGeometry relative="1" as="geometry" />
        </mxCell>
        <mxCell id="gWYd5YzaYYqHv2XwFN_W-22" value="" style="html=1;jettySize=18;whiteSpace=wrap;fontSize=13;strokeColor=#5E5E5E;strokeWidth=1.5;rounded=1;arcSize=12;edgeStyle=orthogonalEdgeStyle;startArrow=none;endArrow=block;endFill=1;entryX=1.003;entryY=0.5;entryPerimeter=0;lucidId=wvyz6pnipsly;" edge="1" parent="1" source="gWYd5YzaYYqHv2XwFN_W-30" target="gWYd5YzaYYqHv2XwFN_W-11">
          <mxGeometry width="100" height="100" relative="1" as="geometry">
            <Array as="points" />
            <mxPoint x="711" y="315" as="sourcePoint" />
          </mxGeometry>
        </mxCell>
        <mxCell id="gWYd5YzaYYqHv2XwFN_W-23" value="" style="html=1;jettySize=18;whiteSpace=wrap;fontSize=13;strokeColor=#5E5E5E;strokeWidth=1.5;rounded=1;arcSize=12;edgeStyle=orthogonalEdgeStyle;startArrow=none;endArrow=block;endFill=1;entryX=1.003;entryY=0.5;entryPerimeter=0;lucidId=wvyzZfF0RA4N;" edge="1" parent="1" source="gWYd5YzaYYqHv2XwFN_W-30" target="gWYd5YzaYYqHv2XwFN_W-4">
          <mxGeometry width="100" height="100" relative="1" as="geometry">
            <Array as="points" />
            <mxPoint x="710.8600000000001" y="319.1299999999999" as="sourcePoint" />
          </mxGeometry>
        </mxCell>
        <mxCell id="gWYd5YzaYYqHv2XwFN_W-24" value="GERENCIAR PERFIL" style="html=1;overflow=block;blockSpacing=1;whiteSpace=wrap;ellipse;fontSize=13;fontColor=#ffffff;spacing=3.8;strokeColor=#ffffff;strokeOpacity=100;fillOpacity=100;rounded=1;absoluteArcSize=1;arcSize=7.5;fillColor=#3278cc;strokeWidth=0.8;lucidId=wvyzY4NGmFOa;" vertex="1" parent="1">
          <mxGeometry x="-8" y="635" width="120" height="90" as="geometry" />
        </mxCell>
        <mxCell id="gWYd5YzaYYqHv2XwFN_W-25" value="" style="html=1;jettySize=18;whiteSpace=wrap;fontSize=13;strokeColor=#5E5E5E;strokeWidth=1.5;rounded=1;arcSize=12;edgeStyle=orthogonalEdgeStyle;startArrow=none;endArrow=block;endFill=1;exitX=0.506;exitY=0.439;exitPerimeter=0;entryX=-0.003;entryY=0.5;entryPerimeter=0;lucidId=wvyz6arKbXtW;" edge="1" parent="1" source="gWYd5YzaYYqHv2XwFN_W-2" target="gWYd5YzaYYqHv2XwFN_W-24">
          <mxGeometry width="100" height="100" relative="1" as="geometry">
            <Array as="points" />
          </mxGeometry>
        </mxCell>
        <mxCell id="gWYd5YzaYYqHv2XwFN_W-26" value="VISUALIZAR AGENDA" style="html=1;overflow=block;blockSpacing=1;whiteSpace=wrap;ellipse;fontSize=13;fontColor=#ffffff;spacing=3.8;strokeColor=#ffffff;strokeOpacity=100;fillOpacity=100;rounded=1;absoluteArcSize=1;arcSize=7.5;fillColor=#3278cc;strokeWidth=0.8;lucidId=wvyzynbhQIqQ;" vertex="1" parent="1">
          <mxGeometry x="165" y="365" width="120" height="90" as="geometry" />
        </mxCell>
        <mxCell id="gWYd5YzaYYqHv2XwFN_W-27" value="" style="html=1;jettySize=18;whiteSpace=wrap;fontSize=13;strokeColor=#5E5E5E;strokeWidth=1.5;rounded=1;arcSize=12;edgeStyle=orthogonalEdgeStyle;startArrow=none;endArrow=block;endFill=1;lucidId=wvyzm8g8ix6~;entryX=1;entryY=0.5;entryDx=0;entryDy=0;" edge="1" parent="1" source="gWYd5YzaYYqHv2XwFN_W-30" target="gWYd5YzaYYqHv2XwFN_W-3">
          <mxGeometry width="100" height="100" relative="1" as="geometry">
            <Array as="points" />
            <mxPoint x="710.8600000000001" y="319.1299999999999" as="sourcePoint" />
          </mxGeometry>
        </mxCell>
        <mxCell id="gWYd5YzaYYqHv2XwFN_W-28" value="" style="html=1;jettySize=18;whiteSpace=wrap;fontSize=13;strokeColor=#333333;strokeOpacity=100;dashed=1;fixDash=1;strokeWidth=0.8;rounded=0;startArrow=none;endArrow=open;exitX=0.5;exitY=1.004;exitPerimeter=0;entryX=0.123;entryY=0.166;entryPerimeter=0;lucidId=wvyz22x5Dq17;" edge="1" parent="1" source="gWYd5YzaYYqHv2XwFN_W-4" target="gWYd5YzaYYqHv2XwFN_W-26">
          <mxGeometry width="100" height="100" relative="1" as="geometry">
            <Array as="points" />
          </mxGeometry>
        </mxCell>
        <mxCell id="gWYd5YzaYYqHv2XwFN_W-29" value="EXTENDS" style="text;html=1;resizable=0;labelBackgroundColor=default;align=center;verticalAlign=middle;fontStyle=2;fontColor=#333333;fontSize=13.3;" vertex="1" parent="gWYd5YzaYYqHv2XwFN_W-28">
          <mxGeometry x="-0.11568560591810295" relative="1" as="geometry">
            <mxPoint as="offset" />
          </mxGeometry>
        </mxCell>
        <mxCell id="gWYd5YzaYYqHv2XwFN_W-30" value="API DE SERVIÇO" style="shape=umlActor;verticalLabelPosition=bottom;verticalAlign=top;html=1;outlineConnect=0;" vertex="1" parent="1">
          <mxGeometry x="715" y="230" width="81" height="155" as="geometry" />
        </mxCell>
      </root>
    </mxGraphModel>
  </diagram>
</mxfile>
